/* XPM */
static char *pixil_frame_0_3_1678816502[] = {
/* columns rows colors chars-per-pixel */
"25 60 7 1 ",
"  c None",
". c #202026",
"X c #702C13",
"o c #D67215",
"O c #E6BC4A",
"+ c #FFF9BD",
"@ c white",
/* pixels */
"                         ",
"                         ",
"         .......         ",
"         .......         ",
"       ...........       ",
"       ...ooooo...       ",
"       ...ooooo...       ",
"       ...ooooo...       ",
"       ...ooooo...       ",
"       ...@@OOO...       ",
"       ...@@OOO...       ",
"       ...++OOO...       ",
"    ...ooo++OOOooo...    ",
"    ...ooo++OOOooo...    ",
"    ...ooo++OOOooo...    ",
"    ...ooo++OOOooo...    ",
"    ...XXXoooooXXX...    ",
"    ...XXXoooooXXX...    ",
"    ...XXXoooooXXX...    ",
"    ...ooo++OOOooo...    ",
"    ...ooo++OOOooo...    ",
"    ...ooo++OOOooo...    ",
"    ...ooo++OOOooo...    ",
"    ...ooo@@OOOooo...    ",
"    ...ooo@@OOOooo...    ",
"    ...ooo@@OOOooo...    ",
"    ...ooo@@OOOooo...    ",
"    ...ooo@@OOOooo...    ",
"    ...ooo@@OOOooo...    ",
"    ...ooo++OOOooo...    ",
"    ...ooo++OOOooo...    ",
"    ...ooo++OOOooo...    ",
"    ...ooo++OOOooo...    ",
"    ...ooo++OOOooo...    ",
"    ...ooo@@OOOooo...    ",
"    ...ooo@@OOOooo...    ",
"    ...ooo++OOOooo...    ",
"    ...ooo++OOOooo...    ",
"    ...ooo++OOOooo...    ",
"    ...ooo++OOOooo...    ",
"    ...ooo++OOOooo...    ",
"    ...XXX++OOOXXX...    ",
"    ...XXX++OOOXXX...    ",
"    ...XXX++OOOXXX...    ",
"      ...XXXXXXX...      ",
"      ...XXXXXXX...      ",
"     ....XXXXXXX....     ",
"     ..XXX++OOOXXX..     ",
"    ...XXX++OOOXXX..     ",
"    ...XXX++OOOXXX...    ",
"    ...XXX++OOOXXX...    ",
"    ...ooooooooooo...    ",
"    ...ooooooooooo...    ",
"    ...ooooooooooo...    ",
"    ...ooooooooooo...    ",
"    .................    ",
"    .................    ",
"    .................    ",
"                         ",
"                         "
};
