/* XPM */
static char *pixil_frame_0_1_1678816502[] = {
/* columns rows colors chars-per-pixel */
"25 60 4 1 ",
"  c None",
". c #202026",
"X c #4B4B69",
"o c #9A9AB8",
/* pixels */
"                         ",
"                         ",
"         .......         ",
"         .......         ",
"       ...........       ",
"       ...ooooo...       ",
"       ...ooooo...       ",
"       ...ooooo...       ",
"       ...ooooo...       ",
"       ...XXXXX...       ",
"       ...XXXXX...       ",
"       ...XXXXX...       ",
"    ...oooXXXXXooo...    ",
"    ...oooXXXXXooo...    ",
"    ...oooXXXXXooo...    ",
"    ...oooXXXXXooo...    ",
"    ...XXX.....XXX...    ",
"    ...XXX.....XXX...    ",
"    ...XXX.....XXX...    ",
"    ...oooXXXXXooo...    ",
"    ...oooXXXXXooo...    ",
"    ...oooXXXXXooo...    ",
"    ...oooXXXXXooo...    ",
"    ...oooXXXXXooo...    ",
"    ...oooXXXXXooo...    ",
"    ...oooXXXXXooo...    ",
"    ...oooXXXXXooo...    ",
"    ...oooXXXXXooo...    ",
"    ...oooXXXXXooo...    ",
"    ...oooXXXXXooo...    ",
"    ...oooXXXXXooo...    ",
"    ...oooXXXXXooo...    ",
"    ...oooXXXXXooo...    ",
"    ...oooXXXXXooo...    ",
"    ...oooXXXXXooo...    ",
"    ...oooXXXXXooo...    ",
"    ...oooXXXXXooo...    ",
"    ...oooXXXXXooo...    ",
"    ...oooXXXXXooo...    ",
"    ...oooXXXXXooo...    ",
"    ...oooXXXXXooo...    ",
"    ...oooXXXXXooo...    ",
"    ...oooXXXXXooo...    ",
"    ...oooXXXXXooo...    ",
"      XXXX.....XXXX      ",
"      XXXX.....XXXX      ",
"      XXXX.....XXXX      ",
"      XXXXXXXXXXXXX      ",
"    ...oooXXXXXooo..     ",
"    ...oooXXXXXooo...    ",
"    ...oooXXXXXooo...    ",
"    ...ooooooooooo...    ",
"    ...ooooooooooo...    ",
"    ...ooooooooooo...    ",
"    ...ooooooooooo...    ",
"    .................    ",
"    .................    ",
"    .................    ",
"                         ",
"                         "
};
