/* XPM */
static char *pixil_frame_0_5_1678817395[] = {
/* columns rows colors chars-per-pixel */
"80 60 5 1 ",
"  c None",
". c #202026",
"X c #4B4B69",
"o c #6A6A9E",
"O c #9A9AB8",
/* pixels */
"                                                                                ",
"                                                                                ",
"                                                                                ",
"                                                                                ",
"              ........                                     .....                ",
"              ........                                     .....                ",
"             ...ooo...                                     .....                ",
"             ...ooo...                                     .....                ",
"             ..oooo...                                     .....                ",
"             ..oooo........................................................     ",
"         ......oooo........................................................     ",
"         ......ooooooooOOOOOOOOOOXXXXOOOooooXXXoooXXXXXoooXXXoooooooooooo..     ",
"         ...oooooooooooOOOOOOOOOOXXXXOOOooooXXXoooXXXXXoooXXXoooooooooooo..     ",
"         ...oooooooooooOOOOOOOOOOXXXXOOOooooXXXoooXXXXXoooXXXoooooooooooo..     ",
"         ...oooooooooooOOOOOOOOOOXXXXOOOooooXXXoooXXXXXoooXXXoooooooooooo..     ",
"         ...oooooooooooOOOOOOOOOOXXXXOOOooooXXXoooXXXXXoooXXXoooooooooooo..     ",
"       ....................................................................     ",
"       ....................................................................     ",
"       ....................................................................     ",
"      ...oooXXXooooXXXXooXXXXoooooooooooooooooooooooooooooooo....               ",
"      ..ooooXXXooooXXXXooXXXXoooooooooooooooooooooooooooooooo....               ",
"      ..ooooXXXooooXXXXooXXXXoooooooooooooooooooooooooooooooo....               ",
"      ..ooooXXXooooXXXXooXXXXoooooooooooooooooooooooooooooooo...                ",
"      .............XXXXXXXXXXXXXX...............................                ",
"      .............XXXXXXXXXXXXXX............................                   ",
"      .............XXXXXXXXXXXooo............................                   ",
"                ...XXXXoooooooooo    .......   ...                              ",
"                ...XXXXooooooo...    .......   ...                              ",
"                ...XXXXooooooo...    .......   ...                              ",
"               ....XXXXooooooo...    ..        ...                              ",
"               ..XXXXXXooooooo...    ..        ...                              ",
"             ....XXoooooooXXXX...    ..     .....                               ",
"             ..XXXXoooooooXXXX...    ..     .....                               ",
"             ..XXXXoooooooXXXX...    ..    ....                                 ",
"           ....XXXXooooXXXXXXX.................                                 ",
"           ....XXXXooooXXXXXXX..............                                    ",
"         ......XXXXooooXXXXXXX..............                                    ",
"         ...XXXXXXXXXXXXXX...                                                   ",
"         ...XXXXXXXXXXXXXX...                                                   ",
"         ...XXXXXXXXXXXXXX...                                                   ",
"         ...XXXXXXXXXXXXXX...                                                   ",
"         ...XXXXXXXXXXXXXX...                                                   ",
"      ......XXXooooXXXXXXX...                                                   ",
"      ......XXXooooXXXXXXX...                                                   ",
"      ......XXXooooXXXXXXX...                                                   ",
"      ..XXXXXXXooooXXXX...                                                      ",
"      ..XXXXoooXXXXXXXX...                                                      ",
"      ..XXXXoooXXXXXXXX...                                                      ",
"      ..XXXXoooXXXXXXXX...                                                      ",
"      ..XXXXoooXXXXXXXX...                                                      ",
"      ..XXXXXXXXXXXXXXX...                                                      ",
"      ..XXXXXXXXXXXXXXX...                                                      ",
"      ..XXXXXXXXXXXXXXX...                                                      ",
"      ..................                                                        ",
"      ..................                                                        ",
"      ................                                                          ",
"                                                                                ",
"                                                                                ",
"                                                                                ",
"                                                                                "
};
